<?xml version="1.0" standalone="no"?>
<!DOCTYPE svg PUBLIC "-//W3C//DTD SVG 20010904//EN"
 "http://www.w3.org/TR/2001/REC-SVG-20010904/DTD/svg10.dtd">
<svg version="1.0" xmlns="http://www.w3.org/2000/svg"
 width="404.000000pt" height="185.000000pt" viewBox="0 0 404.000000 185.000000"
 preserveAspectRatio="xMidYMid meet">
<g transform="translate(0.000000,185.000000) scale(0.100000,-0.100000)"
fill="#FFFFFF" stroke="none">
<path d="M1235 1615 c-724 -427 -1050 -623 -1058 -636 -8 -12 35 -93 183 -350
106 -184 201 -343 212 -354 14 -16 22 -17 36 -8 9 6 16 18 16 26 -1 8 -85 160
-188 337 -103 177 -185 325 -182 328 3 3 259 154 568 337 495 292 563 335 563
356 0 41 -34 33 -150 -36z"/>
<path d="M1600 1665 c-7 -8 -9 -23 -6 -32 7 -16 148 -268 302 -538 l63 -110
-18 -30 c-112 -188 -371 -657 -371 -673 0 -28 30 -37 51 -15 9 10 96 160 194
333 98 173 178 316 179 317 1 1 82 -140 181 -314 98 -173 186 -324 194 -335
17 -20 45 -17 55 7 2 7 -83 168 -190 356 -107 189 -194 349 -194 355 0 6 81
154 180 329 99 174 180 323 180 329 0 34 -20 36 -406 36 -325 0 -383 -2 -394
-15z m682 -107 c-17 -29 -85 -150 -152 -268 -67 -118 -125 -219 -130 -223 -4
-5 -70 101 -145 235 -76 133 -146 258 -157 276 l-20 32 317 0 316 0 -29 -52z"/>
<path d="M2708 1657 c-17 -13 -387 -657 -395 -685 -3 -12 72 -150 195 -363
175 -303 203 -344 226 -347 22 -3 26 1 26 20 0 13 -86 171 -190 352 -105 181
-189 332 -188 335 27 60 343 590 349 584 7 -7 196 -339 582 -1021 88 -156 167
-286 174 -289 8 -3 21 1 28 8 18 18 405 688 405 700 0 10 -330 589 -377 662
-18 28 -30 37 -46 35 -12 -2 -23 -10 -25 -19 -2 -9 83 -165 187 -347 l190
-331 -172 -297 c-95 -163 -176 -297 -180 -298 -5 -1 -174 291 -376 648 -202
357 -375 652 -383 657 -9 5 -21 4 -30 -4z"/>
</g>
</svg>
